<svg xmlns="http://www.w3.org/2000/svg" viewBox="0 0 64 64"><defs><linearGradient id="bg" x1="0" y1="0" x2="1" y2="1"><stop offset="0" stop-color="#7A5BE0"/><stop offset="0.55" stop-color="#5B3CC4"/><stop offset="1" stop-color="#C2478A"/></linearGradient><linearGradient id="rg" x1="0" y1="0" x2="0" y2="1"><stop offset="0" stop-color="#FFF3EC"/><stop offset="0.3" stop-color="#F7D3C4"/><stop offset="0.65" stop-color="#E8B4A0"/><stop offset="1" stop-color="#D99A8B"/></linearGradient><radialGradient id="gl" cx="0.3" cy="0.12" r="0.7"><stop offset="0" stop-color="#FFB59A" stop-opacity="0.55"/><stop offset="1" stop-color="#FFB59A" stop-opacity="0"/></radialGradient><path id="sp" d="M0-1Q.12-.12 1 0Q.12 .12 0 1Q-.12 .12-1 0Q-.12-.12 0-1Z"/></defs><rect width="64" height="64" rx="18" fill="url(#bg)"/><rect width="64" height="64" rx="18" fill="url(#gl)"/><rect x="2.500" y="2.500" width="59" height="59" rx="15.500" fill="none" stroke="url(#rg)" stroke-opacity=".55"/><path d="M8 56q6-5 12 0t12 0 12 0 12 0" fill="none" stroke="#F7D3C4" stroke-opacity=".28" stroke-width="1.4"/><g fill="none" stroke-width="5.500"><circle cx="32" cy="21.500" r="7.500" stroke="url(#rg)"/><circle cx="32" cy="39.500" r="10.500" stroke="url(#rg)"/></g><path d="M32 29v1.600" stroke="#C2478A" stroke-width="3.500"/><use href="#sp" transform="translate(47 14) scale(5.500)" fill="#FFF3EC"/><use href="#sp" transform="translate(16 12) scale(2.400)" fill="#F7D3C4" opacity=".85"/></svg>